<mxfile host="65bd71144e">
    <diagram id="ShO7q3t4R8ToIVqjYavh" name="Seite-1">
        <mxGraphModel dx="1022" dy="800" grid="1" gridSize="10" guides="1" tooltips="1" connect="1" arrows="1" fold="1" page="1" pageScale="1" pageWidth="2336" pageHeight="1654" math="0" shadow="0">
            <root>
                <mxCell id="0"/>
                <mxCell id="1" parent="0"/>
                <mxCell id="2" value="Business-Layer" style="rounded=0;whiteSpace=wrap;html=1;fillColor=#d5e8d4;strokeColor=#82b366;gradientColor=#97d077;align=left;verticalAlign=top;" parent="1" vertex="1">
                    <mxGeometry x="40" y="80" width="1360" height="920" as="geometry"/>
                </mxCell>
                <mxCell id="15" value="server" style="shape=folder;fontStyle=1;spacingTop=10;tabWidth=40;tabHeight=14;tabPosition=left;html=1;align=left;verticalAlign=top;fillColor=#f5f5f5;gradientColor=#b3b3b3;strokeColor=#666666;" parent="1" vertex="1">
                    <mxGeometry x="55" y="607.5" width="150" height="80" as="geometry"/>
                </mxCell>
                <mxCell id="14" value="context" style="html=1;fillColor=#dae8fc;gradientColor=#7ea6e0;strokeColor=#6c8ebf;" parent="1" vertex="1">
                    <mxGeometry x="65" y="647.5" width="60" height="30" as="geometry"/>
                </mxCell>
                <mxCell id="16" value="logger" style="html=1;fillColor=#dae8fc;gradientColor=#7ea6e0;strokeColor=#6c8ebf;" parent="1" vertex="1">
                    <mxGeometry x="135" y="647.5" width="60" height="30" as="geometry"/>
                </mxCell>
                <mxCell id="17" value="model" style="shape=folder;fontStyle=1;spacingTop=10;tabWidth=40;tabHeight=14;tabPosition=left;html=1;align=left;verticalAlign=top;fillColor=#f5f5f5;gradientColor=#b3b3b3;strokeColor=#666666;" parent="1" vertex="1">
                    <mxGeometry x="395" y="607.5" width="335" height="160" as="geometry"/>
                </mxCell>
                <mxCell id="18" value="UserAdmin" style="html=1;fillColor=#f8cecc;gradientColor=#ea6b66;strokeColor=#b85450;" parent="1" vertex="1">
                    <mxGeometry x="400" y="647.5" width="70" height="30" as="geometry"/>
                </mxCell>
                <mxCell id="19" value="Unconfirmed&lt;br&gt;Contribution" style="html=1;fillColor=#f8cecc;gradientColor=#ea6b66;strokeColor=#b85450;" parent="1" vertex="1">
                    <mxGeometry x="480" y="647.5" width="75" height="30" as="geometry"/>
                </mxCell>
                <mxCell id="20" value="AdminCreate&lt;br&gt;Contributions" style="html=1;fillColor=#f8cecc;gradientColor=#ea6b66;strokeColor=#b85450;" parent="1" vertex="1">
                    <mxGeometry x="400" y="687.5" width="75" height="30" as="geometry"/>
                </mxCell>
                <mxCell id="21" value="AdminUpdate&lt;br&gt;Contribution" style="html=1;fillColor=#f8cecc;gradientColor=#ea6b66;strokeColor=#b85450;" parent="1" vertex="1">
                    <mxGeometry x="480" y="687.5" width="75" height="30" as="geometry"/>
                </mxCell>
                <mxCell id="22" value="Contribution&lt;br&gt;Link" style="html=1;fillColor=#f8cecc;gradientColor=#ea6b66;strokeColor=#b85450;" parent="1" vertex="1">
                    <mxGeometry x="400" y="727.5" width="75" height="30" as="geometry"/>
                </mxCell>
                <mxCell id="23" value="Contribution&lt;br&gt;LinkList" style="html=1;fillColor=#f8cecc;gradientColor=#ea6b66;strokeColor=#b85450;" parent="1" vertex="1">
                    <mxGeometry x="480" y="727.5" width="75" height="30" as="geometry"/>
                </mxCell>
                <mxCell id="24" value="auth" style="shape=folder;fontStyle=1;spacingTop=10;tabWidth=40;tabHeight=14;tabPosition=left;html=1;align=left;verticalAlign=top;fillColor=#f5f5f5;gradientColor=#b3b3b3;strokeColor=#666666;" parent="1" vertex="1">
                    <mxGeometry x="55" y="697.5" width="155" height="80" as="geometry"/>
                </mxCell>
                <mxCell id="25" value="RIGHTS" style="html=1;fillColor=#dae8fc;gradientColor=#7ea6e0;strokeColor=#6c8ebf;" parent="1" vertex="1">
                    <mxGeometry x="65" y="737.5" width="60" height="30" as="geometry"/>
                </mxCell>
                <mxCell id="26" value="repository" style="shape=folder;fontStyle=1;spacingTop=10;tabWidth=40;tabHeight=14;tabPosition=left;html=1;align=left;verticalAlign=top;fillColor=#f5f5f5;gradientColor=#b3b3b3;strokeColor=#666666;" parent="1" vertex="1">
                    <mxGeometry x="395" y="787.5" width="160" height="80" as="geometry"/>
                </mxCell>
                <mxCell id="27" value="User" style="html=1;fillColor=#f8cecc;gradientColor=#ea6b66;strokeColor=#b85450;" parent="1" vertex="1">
                    <mxGeometry x="405" y="827.5" width="60" height="30" as="geometry"/>
                </mxCell>
                <mxCell id="28" value="arg" style="shape=folder;fontStyle=1;spacingTop=10;tabWidth=40;tabHeight=14;tabPosition=left;html=1;align=left;verticalAlign=top;fillColor=#f5f5f5;gradientColor=#b3b3b3;strokeColor=#666666;" parent="1" vertex="1">
                    <mxGeometry x="745" y="787.5" width="340" height="170" as="geometry"/>
                </mxCell>
                <mxCell id="29" value="AdminCreate&lt;br&gt;ContributionArgs" style="html=1;fillColor=#f8cecc;gradientColor=#ea6b66;strokeColor=#b85450;" parent="1" vertex="1">
                    <mxGeometry x="755" y="827.5" width="100" height="30" as="geometry"/>
                </mxCell>
                <mxCell id="30" value="AdminUpdate&lt;br&gt;ContributionArgs" style="html=1;fillColor=#f8cecc;gradientColor=#ea6b66;strokeColor=#b85450;" parent="1" vertex="1">
                    <mxGeometry x="862.5" y="827.5" width="100" height="30" as="geometry"/>
                </mxCell>
                <mxCell id="32" value="SearchUsersArgs" style="html=1;fillColor=#f8cecc;gradientColor=#ea6b66;strokeColor=#b85450;" parent="1" vertex="1">
                    <mxGeometry x="755" y="867.5" width="100" height="30" as="geometry"/>
                </mxCell>
                <mxCell id="33" value="Contribution&lt;br&gt;LinkArgs" style="html=1;fillColor=#f8cecc;gradientColor=#ea6b66;strokeColor=#b85450;" parent="1" vertex="1">
                    <mxGeometry x="862.5" y="867.5" width="100" height="30" as="geometry"/>
                </mxCell>
                <mxCell id="34" value="entity" style="shape=folder;fontStyle=1;spacingTop=10;tabWidth=40;tabHeight=14;tabPosition=left;html=1;align=left;verticalAlign=top;fillColor=#f5f5f5;gradientColor=#b3b3b3;strokeColor=#666666;" parent="1" vertex="1">
                    <mxGeometry x="1125" y="600" width="260" height="160" as="geometry"/>
                </mxCell>
                <mxCell id="35" value="Transaction" style="html=1;fillColor=#f8cecc;gradientColor=#ea6b66;strokeColor=#b85450;" parent="1" vertex="1">
                    <mxGeometry x="1130" y="640" width="75" height="30" as="geometry"/>
                </mxCell>
                <mxCell id="36" value="Contribution&lt;br&gt;Link" style="html=1;fillColor=#f8cecc;gradientColor=#ea6b66;strokeColor=#b85450;" parent="1" vertex="1">
                    <mxGeometry x="1215" y="640" width="75" height="30" as="geometry"/>
                </mxCell>
                <mxCell id="37" value="Transaction&lt;br&gt;Link" style="html=1;fillColor=#f8cecc;gradientColor=#ea6b66;strokeColor=#b85450;" parent="1" vertex="1">
                    <mxGeometry x="1130" y="680" width="75" height="30" as="geometry"/>
                </mxCell>
                <mxCell id="38" value="Transaction" style="html=1;fillColor=#f8cecc;gradientColor=#ea6b66;strokeColor=#b85450;" parent="1" vertex="1">
                    <mxGeometry x="560" y="647.5" width="75" height="30" as="geometry"/>
                </mxCell>
                <mxCell id="39" value="Transaction&lt;br&gt;Link" style="html=1;fillColor=#f8cecc;gradientColor=#ea6b66;strokeColor=#b85450;" parent="1" vertex="1">
                    <mxGeometry x="560" y="687.5" width="75" height="30" as="geometry"/>
                </mxCell>
                <mxCell id="40" value="Transaction" style="html=1;fillColor=#f8cecc;gradientColor=#ea6b66;strokeColor=#b85450;" parent="1" vertex="1">
                    <mxGeometry x="475" y="827.5" width="70" height="30" as="geometry"/>
                </mxCell>
                <mxCell id="41" value="util" style="shape=folder;fontStyle=1;spacingTop=10;tabWidth=40;tabHeight=14;tabPosition=left;html=1;align=left;verticalAlign=top;fillColor=#f5f5f5;gradientColor=#b3b3b3;strokeColor=#666666;" parent="1" vertex="1">
                    <mxGeometry x="395" y="877.5" width="335" height="80" as="geometry"/>
                </mxCell>
                <mxCell id="42" value="decay" style="html=1;fillColor=#f8cecc;gradientColor=#ea6b66;strokeColor=#b85450;" parent="1" vertex="1">
                    <mxGeometry x="405" y="917.5" width="60" height="30" as="geometry"/>
                </mxCell>
                <mxCell id="43" value="Contribution" style="html=1;fillColor=#dae8fc;gradientColor=#7ea6e0;strokeColor=#6c8ebf;" parent="1" vertex="1">
                    <mxGeometry x="1215" y="677.5" width="75" height="30" as="geometry"/>
                </mxCell>
                <mxCell id="44" value="hasElopage&lt;br&gt;Buys" style="html=1;fillColor=#f8cecc;gradientColor=#ea6b66;strokeColor=#b85450;" parent="1" vertex="1">
                    <mxGeometry x="475" y="917.5" width="60" height="30" as="geometry"/>
                </mxCell>
                <mxCell id="45" value="LoginEmail&lt;br&gt;OptIn" style="html=1;fillColor=#f8cecc;gradientColor=#ea6b66;strokeColor=#b85450;" parent="1" vertex="1">
                    <mxGeometry x="1130" y="720" width="75" height="30" as="geometry"/>
                </mxCell>
                <mxCell id="46" value="User" style="html=1;fillColor=#f8cecc;gradientColor=#ea6b66;strokeColor=#b85450;" parent="1" vertex="1">
                    <mxGeometry x="1212.5" y="720" width="75" height="30" as="geometry"/>
                </mxCell>
                <mxCell id="47" value="User" style="html=1;fillColor=#dae8fc;gradientColor=#7ea6e0;strokeColor=#6c8ebf;" parent="1" vertex="1">
                    <mxGeometry x="560" y="727.5" width="75" height="30" as="geometry"/>
                </mxCell>
                <mxCell id="48" value="enum" style="shape=folder;fontStyle=1;spacingTop=10;tabWidth=40;tabHeight=14;tabPosition=left;html=1;align=left;verticalAlign=top;fillColor=#f5f5f5;gradientColor=#b3b3b3;strokeColor=#666666;" parent="1" vertex="1">
                    <mxGeometry x="745" y="600" width="340" height="157.5" as="geometry"/>
                </mxCell>
                <mxCell id="49" value="Transaction&lt;br&gt;TypeId" style="html=1;fillColor=#f8cecc;gradientColor=#ea6b66;strokeColor=#b85450;" parent="1" vertex="1">
                    <mxGeometry x="755" y="640" width="100" height="30" as="geometry"/>
                </mxCell>
                <mxCell id="50" value="Contribution&lt;br&gt;Type" style="html=1;fillColor=#f8cecc;gradientColor=#ea6b66;strokeColor=#b85450;" parent="1" vertex="1">
                    <mxGeometry x="755" y="680" width="100" height="30" as="geometry"/>
                </mxCell>
                <mxCell id="51" value="Contribution&lt;br&gt;Status" style="html=1;fillColor=#f8cecc;gradientColor=#ea6b66;strokeColor=#b85450;" parent="1" vertex="1">
                    <mxGeometry x="865" y="640" width="100" height="30" as="geometry"/>
                </mxCell>
                <mxCell id="52" value="Decay" style="html=1;fillColor=#f8cecc;gradientColor=#ea6b66;strokeColor=#b85450;" parent="1" vertex="1">
                    <mxGeometry x="645" y="647.5" width="75" height="30" as="geometry"/>
                </mxCell>
                <mxCell id="53" value="Paginated" style="html=1;fillColor=#f8cecc;gradientColor=#ea6b66;strokeColor=#b85450;" parent="1" vertex="1">
                    <mxGeometry x="755" y="907.5" width="100" height="30" as="geometry"/>
                </mxCell>
                <mxCell id="54" value="Transaction&lt;br&gt;LinkFilters" style="html=1;fillColor=#f8cecc;gradientColor=#ea6b66;strokeColor=#b85450;" parent="1" vertex="1">
                    <mxGeometry x="862.5" y="907.5" width="100" height="30" as="geometry"/>
                </mxCell>
                <mxCell id="55" value="Order" style="html=1;fillColor=#f8cecc;gradientColor=#ea6b66;strokeColor=#b85450;" parent="1" vertex="1">
                    <mxGeometry x="865" y="680" width="100" height="30" as="geometry"/>
                </mxCell>
                <mxCell id="56" value="community&lt;br&gt;User" style="html=1;fillColor=#f8cecc;gradientColor=#ea6b66;strokeColor=#b85450;" parent="1" vertex="1">
                    <mxGeometry x="545" y="917.5" width="60" height="30" as="geometry"/>
                </mxCell>
                <mxCell id="59" value="mailer" style="shape=folder;fontStyle=1;spacingTop=10;tabWidth=40;tabHeight=14;tabPosition=left;html=1;align=left;verticalAlign=top;fillColor=#f5f5f5;gradientColor=#b3b3b3;strokeColor=#666666;" parent="1" vertex="1">
                    <mxGeometry x="615" y="787.5" width="115" height="80" as="geometry"/>
                </mxCell>
                <mxCell id="60" value="sendAccount&lt;br&gt;ActivationEmail" style="html=1;fillColor=#f8cecc;gradientColor=#ea6b66;strokeColor=#b85450;" parent="1" vertex="1">
                    <mxGeometry x="625" y="827.5" width="95" height="30" as="geometry"/>
                </mxCell>
                <mxCell id="61" value="config" style="shape=folder;fontStyle=1;spacingTop=10;tabWidth=40;tabHeight=14;tabPosition=left;html=1;align=left;verticalAlign=top;fillColor=#f5f5f5;gradientColor=#b3b3b3;strokeColor=#666666;" parent="1" vertex="1">
                    <mxGeometry x="55" y="787.5" width="125" height="80" as="geometry"/>
                </mxCell>
                <mxCell id="62" value="CONFIG" style="html=1;fillColor=#dae8fc;gradientColor=#7ea6e0;strokeColor=#6c8ebf;" parent="1" vertex="1">
                    <mxGeometry x="65" y="827.5" width="95" height="30" as="geometry"/>
                </mxCell>
                <mxCell id="63" value="creations" style="html=1;fillColor=#f8cecc;gradientColor=#ea6b66;strokeColor=#b85450;" parent="1" vertex="1">
                    <mxGeometry x="615" y="917.5" width="60" height="30" as="geometry"/>
                </mxCell>
                <mxCell id="64" value="const" style="shape=folder;fontStyle=1;spacingTop=10;tabWidth=40;tabHeight=14;tabPosition=left;html=1;align=left;verticalAlign=top;fillColor=#f5f5f5;gradientColor=#b3b3b3;strokeColor=#666666;" parent="1" vertex="1">
                    <mxGeometry x="55" y="877.5" width="125" height="80" as="geometry"/>
                </mxCell>
                <mxCell id="65" value="const" style="html=1;fillColor=#f8cecc;gradientColor=#ea6b66;strokeColor=#b85450;" parent="1" vertex="1">
                    <mxGeometry x="65" y="917.5" width="95" height="30" as="geometry"/>
                </mxCell>
                <mxCell id="66" value="Contribution&lt;br&gt;Message" style="html=1;fillColor=#f8cecc;gradientColor=#ea6b66;strokeColor=#b85450;" parent="1" vertex="1">
                    <mxGeometry x="1295" y="640" width="75" height="30" as="geometry"/>
                </mxCell>
                <mxCell id="67" value="Contribution&lt;br&gt;MessageArgs" style="html=1;fillColor=#f8cecc;gradientColor=#ea6b66;strokeColor=#b85450;" parent="1" vertex="1">
                    <mxGeometry x="975" y="827.5" width="100" height="30" as="geometry"/>
                </mxCell>
                <mxCell id="68" value="MessageType" style="html=1;fillColor=#f8cecc;gradientColor=#ea6b66;strokeColor=#b85450;" parent="1" vertex="1">
                    <mxGeometry x="975" y="640" width="100" height="30" as="geometry"/>
                </mxCell>
                <mxCell id="69" value="Contribution&lt;br&gt;Message" style="html=1;fillColor=#f8cecc;gradientColor=#ea6b66;strokeColor=#b85450;" parent="1" vertex="1">
                    <mxGeometry x="645" y="687.5" width="75" height="30" as="geometry"/>
                </mxCell>
                <mxCell id="70" value="type-graphql" style="shape=folder;fontStyle=1;spacingTop=10;tabWidth=40;tabHeight=14;tabPosition=left;html=1;align=left;verticalAlign=top;fillColor=#f5f5f5;gradientColor=#b3b3b3;strokeColor=#666666;" parent="1" vertex="1">
                    <mxGeometry x="225" y="607.5" width="115" height="182.5" as="geometry"/>
                </mxCell>
                <mxCell id="72" value="dbTools" style="shape=folder;fontStyle=1;spacingTop=10;tabWidth=40;tabHeight=14;tabPosition=left;html=1;align=left;verticalAlign=top;fillColor=#f5f5f5;gradientColor=#b3b3b3;strokeColor=#666666;" parent="1" vertex="1">
                    <mxGeometry x="225" y="877.5" width="115" height="80" as="geometry"/>
                </mxCell>
                <mxCell id="73" value="typeorm" style="html=1;fillColor=#dae8fc;gradientColor=#7ea6e0;strokeColor=#6c8ebf;" parent="1" vertex="1">
                    <mxGeometry x="245" y="917.5" width="60" height="30" as="geometry"/>
                </mxCell>
                <mxCell id="75" value="&lt;p style=&quot;margin: 0px ; margin-top: 4px ; text-align: center&quot;&gt;&lt;b&gt;UserResolver&lt;/b&gt;&lt;/p&gt;&lt;hr size=&quot;1&quot;&gt;&lt;p style=&quot;margin: 0px ; margin-left: 4px&quot;&gt;+ checkOptInCode:&amp;nbsp;LoginEmailOptIn&lt;/p&gt;&lt;p style=&quot;margin: 0px ; margin-left: 4px&quot;&gt;+&amp;nbsp;activationLink: string&lt;/p&gt;&lt;p style=&quot;margin: 0px ; margin-left: 4px&quot;&gt;+&amp;nbsp;printTimeDuration: string&lt;/p&gt;&lt;hr size=&quot;1&quot;&gt;&lt;p style=&quot;margin: 0px ; margin-left: 4px&quot;&gt;+ verifyLogin(): User&lt;/p&gt;&lt;p style=&quot;margin: 0px ; margin-left: 4px&quot;&gt;+&amp;nbsp;login(): User&lt;/p&gt;&lt;p style=&quot;margin: 0px ; margin-left: 4px&quot;&gt;+&amp;nbsp;logout(): boolean&lt;/p&gt;&lt;p style=&quot;margin: 0px ; margin-left: 4px&quot;&gt;+&amp;nbsp;createUser(): User&lt;/p&gt;&lt;p style=&quot;margin: 0px ; margin-left: 4px&quot;&gt;+&amp;nbsp;forgotPassword(): boolean&lt;/p&gt;&lt;p style=&quot;margin: 0px ; margin-left: 4px&quot;&gt;+&amp;nbsp;setPassword(): boolean&lt;/p&gt;&lt;p style=&quot;margin: 0px ; margin-left: 4px&quot;&gt;+&amp;nbsp;queryOptIn(): boolean&lt;/p&gt;&lt;p style=&quot;margin: 0px ; margin-left: 4px&quot;&gt;+&amp;nbsp;updateUserInfos(): boolean&lt;/p&gt;&lt;p style=&quot;margin: 0px ; margin-left: 4px&quot;&gt;+&amp;nbsp;hasElopage(): boolean&lt;/p&gt;&lt;p style=&quot;margin: 0px ; margin-left: 4px&quot;&gt;+&amp;nbsp;searchAdminUsers():&amp;nbsp;SearchAdminUsersResult&lt;/p&gt;" style="verticalAlign=top;align=left;overflow=fill;fontSize=12;fontFamily=Helvetica;html=1;" parent="1" vertex="1">
                    <mxGeometry x="465" y="120" width="285" height="240" as="geometry"/>
                </mxCell>
                <mxCell id="76" value="Resolver" style="rounded=0;whiteSpace=wrap;html=1;fillColor=#dae8fc;gradientColor=#7ea6e0;strokeColor=#6c8ebf;" parent="1" vertex="1">
                    <mxGeometry x="230" y="647.5" width="50" height="22.5" as="geometry"/>
                </mxCell>
                <mxCell id="77" value="Query" style="rounded=0;whiteSpace=wrap;html=1;fillColor=#dae8fc;gradientColor=#7ea6e0;strokeColor=#6c8ebf;" parent="1" vertex="1">
                    <mxGeometry x="290" y="647.5" width="40" height="22.5" as="geometry"/>
                </mxCell>
                <mxCell id="78" value="UseMiddleware" style="rounded=0;whiteSpace=wrap;html=1;fillColor=#dae8fc;gradientColor=#7ea6e0;strokeColor=#6c8ebf;" parent="1" vertex="1">
                    <mxGeometry x="230" y="757.5" width="90" height="23.75" as="geometry"/>
                </mxCell>
                <mxCell id="79" value="Arg" style="rounded=0;whiteSpace=wrap;html=1;fillColor=#dae8fc;gradientColor=#7ea6e0;strokeColor=#6c8ebf;" parent="1" vertex="1">
                    <mxGeometry x="230" y="672.5" width="50" height="17.5" as="geometry"/>
                </mxCell>
                <mxCell id="80" value="Args" style="rounded=0;whiteSpace=wrap;html=1;fillColor=#dae8fc;gradientColor=#7ea6e0;strokeColor=#6c8ebf;" parent="1" vertex="1">
                    <mxGeometry x="290" y="672.5" width="40" height="17.5" as="geometry"/>
                </mxCell>
                <mxCell id="81" value="Authorized" style="rounded=0;whiteSpace=wrap;html=1;fillColor=#dae8fc;gradientColor=#7ea6e0;strokeColor=#6c8ebf;" parent="1" vertex="1">
                    <mxGeometry x="230" y="697.5" width="60" height="22.5" as="geometry"/>
                </mxCell>
                <mxCell id="82" value="Mutation" style="rounded=0;whiteSpace=wrap;html=1;fillColor=#dae8fc;gradientColor=#7ea6e0;strokeColor=#6c8ebf;" parent="1" vertex="1">
                    <mxGeometry x="230" y="727.5" width="60" height="22.5" as="geometry"/>
                </mxCell>
                <mxCell id="83" value="Ctx" style="rounded=0;whiteSpace=wrap;html=1;fillColor=#dae8fc;gradientColor=#7ea6e0;strokeColor=#6c8ebf;" parent="1" vertex="1">
                    <mxGeometry x="300" y="697.5" width="30" height="22.5" as="geometry"/>
                </mxCell>
                <mxCell id="84" value="fs" style="shape=folder;fontStyle=1;spacingTop=10;tabWidth=40;tabHeight=14;tabPosition=left;html=1;align=left;verticalAlign=top;fillColor=#f5f5f5;gradientColor=#b3b3b3;strokeColor=#666666;" vertex="1" parent="1">
                    <mxGeometry x="225" y="790" width="115" height="80" as="geometry"/>
                </mxCell>
                <mxCell id="85" value="fs" style="html=1;fillColor=#dae8fc;gradientColor=#7ea6e0;strokeColor=#6c8ebf;" vertex="1" parent="1">
                    <mxGeometry x="245" y="830" width="60" height="30" as="geometry"/>
                </mxCell>
                <mxCell id="86" value="JWT" style="html=1;fillColor=#dae8fc;gradientColor=#7ea6e0;strokeColor=#6c8ebf;" vertex="1" parent="1">
                    <mxGeometry x="140" y="737.5" width="60" height="30" as="geometry"/>
                </mxCell>
            </root>
        </mxGraphModel>
    </diagram>
</mxfile>